<?xml version="1.0" encoding="UTF-8" standalone="no"?>
<!-- Created with Inkscape (http://www.inkscape.org/) -->

<svg
   width="326.57224"
   height="246.0415"
   viewBox="0 0 86.405568 65.098479"
   version="1.1"
   id="svg1"
   xml:space="preserve"
   xmlns="http://www.w3.org/2000/svg"
   xmlns:svg="http://www.w3.org/2000/svg"><defs
     id="defs1" /><g
     id="layer1"
     transform="translate(-243.43557,-18.032337)"><path
       style="opacity:1;fill:none;fill-opacity:1;stroke-width:0.2;stroke-linecap:round"
       d="M 233.72169,106.39415 V 0.56081921 H 339.55502 V 106.39415 Z"
       id="path12" /><path
       style="fill:#ffffff;fill-opacity:1;stroke-width:4.62098"
       d="m 282.57052,61.279059 c -0.0416,-0.154802 -0.1987,-0.781037 -0.34611,-1.392208 -0.14741,-0.61117 -0.33225,-1.279595 -0.41034,-1.48546 -0.0841,-0.220882 -0.27495,-0.374299 -0.46552,-0.374299 -0.17791,0 -1.02872,-0.225505 -1.89091,-0.501054 -0.86222,-0.27541 -2.0013,-0.718376 -2.53123,-0.984036 -0.52993,-0.265706 -1.45436,-0.799523 -2.05425,-1.186298 -0.5999,-0.386776 -1.74512,-1.334077 -2.54496,-2.105133 -0.7998,-0.771058 -1.80916,-1.872605 -2.24293,-2.447872 -0.43391,-0.575311 -1.1418,-1.732542 -1.5734,-2.57162 -0.4316,-0.839077 -0.97738,-2.139561 -1.21287,-2.889915 -0.23567,-0.750401 -0.53169,-2.051205 -0.65826,-2.890652 -0.12662,-0.839448 -0.23058,-2.044968 -0.23105,-2.678921 -5.5e-4,-0.633952 0.0763,-1.707498 0.17052,-2.385626 0.0943,-0.678129 0.31284,-1.785316 0.48543,-2.460394 0.17283,-0.675033 0.62282,-1.91401 1.0004,-2.753226 0.37753,-0.839215 1.03491,-2.052915 1.46078,-2.697125 0.42606,-0.644212 1.32581,-1.75893 1.99978,-2.477122 0.67397,-0.718195 1.77357,-1.713322 2.44357,-2.211323 0.67,-0.49805 1.86235,-1.236667 2.64972,-1.641419 0.78741,-0.404798 2.03152,-0.924104 2.76477,-1.154043 0.73321,-0.230125 1.50122,-0.418199 1.70667,-0.418199 0.20563,0 0.44315,-0.09057 0.52869,-0.200552 0.0855,-0.110445 0.27956,-0.670456 0.43159,-1.244567 0.15203,-0.574111 0.35028,-1.280473 0.44038,-1.569747 l 0.16405,-0.525912 2.51081,0.04621 2.51081,0.04621 0.43806,1.589618 c 0.24076,0.874289 0.49598,1.639246 0.56677,1.69992 0.0707,0.06054 0.70008,0.271713 1.39845,0.469214 l 1.26975,0.359049 1.22294,-1.215779 c 0.67258,-0.668655 1.318,-1.215733 1.43417,-1.215733 0.11598,0 0.69268,0.266167 1.28116,0.591208 0.58844,0.325318 1.50353,0.878401 2.03346,1.229319 0.52994,0.350733 0.98469,0.654008 1.01052,0.673553 0.0277,0.01848 -0.17144,0.820457 -0.43899,1.779863 l -0.4859,1.744328 0.89236,0.901783 0.89236,0.901738 1.39331,-0.291121 c 0.76635,-0.160348 1.61591,-0.293894 1.8879,-0.297591 0.46437,-0.0046 0.54865,0.09427 1.37988,1.639707 0.48691,0.905342 0.97997,1.88633 1.09563,2.179993 l 0.21025,0.533909 -1.24452,1.251868 -1.24457,1.251916 0.30591,1.259541 0.30591,1.259493 1.64752,0.351196 c 0.90613,0.193156 1.69497,0.398327 1.75297,0.45655 0.0582,0.05822 0.13401,1.075073 0.16866,2.260169 0.0323,1.18505 0.0185,2.328973 -0.0323,2.542047 -0.0841,0.335481 -0.28927,0.434833 -1.53481,0.74259 -0.7907,0.195467 -1.54378,0.438532 -1.67349,0.540239 -0.12984,0.101659 -0.37522,0.704146 -0.54573,1.338605 l -0.31007,1.153534 1.17885,1.171004 c 0.64838,0.644026 1.17886,1.265177 1.17886,1.380333 0,0.115057 -0.2255,0.65895 -0.50133,1.20843 -0.27587,0.549528 -0.78478,1.486894 -1.13121,2.083092 -0.45702,0.786538 -0.72115,1.083989 -0.96246,1.083989 -0.18299,0 -1.01698,-0.186687 -1.85357,-0.414503 -0.83653,-0.227812 -1.53282,-0.388623 -1.54729,-0.357662 -0.0138,0.03234 -0.40294,0.452393 -0.86379,0.936303 l -0.83756,0.87951 0.47342,1.605883 c 0.26016,0.883255 0.47384,1.678201 0.4743,1.766507 5.1e-4,0.08827 -0.37753,0.421433 -0.84028,0.740235 -0.46265,0.318847 -1.38934,0.878864 -2.05934,1.244568 -0.66995,0.365521 -1.31873,0.664914 -1.44174,0.664914 -0.12292,0 -0.77212,-0.545231 -1.44249,-1.211667 l -1.21883,-1.211718 -1.35413,0.39001 -1.35418,0.39001 -0.29251,1.10289 c -0.16081,0.606597 -0.36228,1.373909 -0.44777,1.705141 l -0.15527,0.602206 h -2.55244 c -2.29404,0 -2.56035,-0.02773 -2.63068,-0.280955 z m 4.26396,-2.744029 c 0.16127,-0.7364 0.36183,-1.467484 0.44593,-1.624598 0.0869,-0.162196 0.42051,-0.328551 0.77281,-0.384927 0.34103,-0.05452 1.33384,-0.318848 2.20642,-0.587466 l 1.58648,-0.488345 1.22659,1.219338 1.22655,1.219385 1.06939,-0.587789 c 0.58815,-0.323469 1.06934,-0.675079 1.06934,-0.781732 0,-0.106737 -0.21488,-0.876876 -0.47758,-1.71161 l -0.47763,-1.517668 1.64188,-1.642943 1.64188,-1.642988 1.56587,0.454704 c 1.10769,0.321619 1.60533,0.402948 1.70084,0.278183 0.0744,-0.09751 0.37245,-0.599434 0.66297,-1.115875 l 0.5279,-0.938936 -1.17266,-1.180568 -1.17267,-1.180521 0.42097,-1.413512 c 0.23151,-0.777386 0.51705,-1.774778 0.63442,-2.216406 l 0.21349,-0.802942 1.48107,-0.384002 1.48111,-0.384004 v -1.322477 -1.322478 l -0.50184,-0.100272 c -0.27587,-0.05499 -4.43128,-0.100273 -9.23391,-0.100273 h -8.73208 v 1.605884 1.605881 h 6.0984 6.0984 l -0.0892,0.52194 c -0.049,0.286963 -0.23244,1.018141 -0.40758,1.624643 -0.17513,0.606504 -0.49144,1.493177 -0.70248,1.970339 -0.21118,0.477163 -0.7577,1.408661 -1.21485,2.069921 -0.45702,0.661263 -1.27488,1.61739 -1.81725,2.12468 -0.54232,0.507338 -1.39627,1.194662 -1.89765,1.527465 -0.50138,0.332712 -1.37437,0.812646 -1.94002,1.066429 -0.56561,0.253692 -1.63116,0.613852 -2.36779,0.800169 -0.97277,0.245837 -1.83837,0.338718 -3.16237,0.338718 -1.0412,0 -2.35328,-0.109524 -3.05964,-0.255539 -0.68016,-0.140478 -1.66961,-0.431139 -2.19875,-0.646337 -0.52915,-0.214875 -1.45954,-0.686493 -2.06752,-1.047668 -0.60799,-0.361361 -1.64308,-1.167445 -2.30019,-1.791646 -0.65715,-0.624201 -1.58213,-1.717988 -2.05559,-2.430634 -0.47342,-0.712648 -1.07512,-1.837672 -1.33708,-2.500135 -0.26201,-0.662417 -0.57157,-1.637999 -0.68802,-2.167932 -0.12107,-0.550775 -0.20517,-1.857958 -0.19685,-3.051232 0.009,-1.574877 0.098,-2.398427 0.35211,-3.352799 0.18531,-0.695826 0.59241,-1.795572 0.90419,-2.443804 0.31192,-0.648277 1.00714,-1.762903 1.54521,-2.476938 0.56917,-0.755344 1.51869,-1.734622 2.27061,-2.341681 0.71075,-0.573878 1.87686,-1.324418 2.59131,-1.667849 0.7144,-0.343339 1.87708,-0.76796 2.58368,-0.943327 0.70659,-0.175596 1.82672,-0.365981 2.48913,-0.423744 0.66242,-0.05776 1.85482,-0.0231 2.64977,0.0767 0.7949,0.09981 2.07024,0.390473 2.83404,0.646105 0.76385,0.25554 1.91771,0.775448 2.56418,1.155522 0.71473,0.420048 1.74392,1.260049 2.62597,2.142795 0.79781,0.798458 1.58116,1.683698 1.74072,1.967242 l 0.2902,0.51547 h -0.95978 c -0.95677,0 -0.96232,-0.0028 -1.81567,-0.900859 -0.47079,-0.495508 -1.30113,-1.219847 -1.84521,-1.609671 -0.54403,-0.390012 -1.52076,-0.954372 -2.17052,-1.25455 -0.64971,-0.300364 -1.79109,-0.669396 -2.53641,-0.820409 -0.98722,-0.200088 -1.81526,-0.252768 -3.0503,-0.194081 -1.31749,0.06237 -2.00588,0.187611 -3.08968,0.561032 -0.76699,0.26432 -1.94969,0.826648 -2.62823,1.249607 -0.67855,0.422818 -1.63079,1.172387 -2.11609,1.665491 -0.48529,0.493152 -1.16933,1.319152 -1.52007,1.835638 -0.35073,0.516441 -0.78381,1.269384 -0.96245,1.673211 -0.17837,0.403873 -0.46603,1.211019 -0.63872,1.79377 -0.1779,0.600729 -0.35073,1.789752 -0.39879,2.74574 -0.0601,1.190966 -0.0138,2.024775 0.16081,2.838945 0.13494,0.633999 0.42375,1.59359 0.64135,2.132443 0.21765,0.538806 0.63816,1.393132 0.93445,1.898483 0.29621,0.505305 1.15298,1.534951 1.90371,2.288079 1.02017,1.02336 1.68957,1.536566 2.64976,2.031474 0.70659,0.364132 1.79058,0.819992 2.40882,1.012917 0.68072,0.212566 1.76194,0.38539 2.74098,0.438995 0.93418,0.05083 2.06614,0.0092 2.681,-0.09704 0.58525,-0.102128 1.57867,-0.394632 2.20758,-0.650633 0.62887,-0.256003 1.54373,-0.706178 2.033,-1.000535 0.48927,-0.294356 1.35617,-0.961163 1.92644,-1.481763 0.57023,-0.520599 1.31158,-1.351635 1.64743,-1.846773 0.33594,-0.495139 0.82692,-1.333846 1.09129,-1.86378 0.26432,-0.529935 0.52855,-1.162269 0.58709,-1.405147 l 0.10628,-0.441766 h -5.86457 -5.86458 v -3.211815 -3.211811 h 8.27035 c 6.50925,0 8.2704,-0.0416 8.27045,-0.20055 0,-0.110445 -0.18854,-0.841618 -0.41913,-1.624875 l -0.41912,-1.424185 1.20963,-1.225577 1.20964,-1.22553 -0.55202,-1.083988 c -0.33687,-0.661862 -0.65286,-1.083989 -0.81094,-1.083989 -0.14233,0 -0.90622,0.15203 -1.69728,0.337794 l -1.43838,0.337792 -1.55241,-1.498999 c -0.85387,-0.824475 -1.57844,-1.514295 -1.61018,-1.532963 -0.0323,-0.01848 0.17467,-0.800954 0.45932,-1.73846 0.28419,-0.937457 0.49098,-1.728476 0.45933,-1.757819 -0.0323,-0.02773 -0.52744,-0.312378 -1.10155,-0.629239 l -1.04384,-0.575912 -1.21231,1.204735 -1.21227,1.204735 -0.71477,-0.254153 c -0.39325,-0.140016 -1.3953,-0.427903 -2.22699,-0.640191 -0.83168,-0.212102 -1.56808,-0.476377 -1.63652,-0.587094 -0.0684,-0.110447 -0.28142,-0.836213 -0.47305,-1.612307 l -0.34888,-1.411108 h -1.26227 -1.26226 l -0.2366,0.843097 c -0.13031,0.463716 -0.31654,1.153444 -0.41404,1.532778 -0.11876,0.462098 -0.29389,0.735107 -0.53058,0.827387 -0.19408,0.07579 -1.00335,0.29297 -1.79793,0.48317 -0.79462,0.189922 -2.10426,0.657797 -2.91034,1.039628 -0.80604,0.381692 -1.90384,0.991893 -2.43946,1.35561 -0.53566,0.363671 -1.41194,1.066938 -1.94733,1.562584 -0.53534,0.495647 -1.32349,1.345167 -1.75139,1.887809 -0.42791,0.542641 -1.07544,1.492437 -1.43898,2.110725 -0.36367,0.618286 -0.882,1.661149 -1.15219,2.317513 -0.27033,0.656318 -0.64033,1.920987 -0.82258,2.810293 -0.22319,1.089997 -0.3304,2.218856 -0.32902,3.463748 10e-4,1.041383 0.10907,2.337013 0.2463,2.970919 0.13401,0.618288 0.39833,1.589895 0.58682,2.159152 0.18854,0.569259 0.65387,1.653249 1.03385,2.408872 0.37985,0.755574 1.03612,1.843539 1.45811,2.41765 0.42189,0.574108 1.19678,1.465404 1.72177,1.980735 0.52495,0.515286 1.39808,1.263931 1.94026,1.663692 0.54218,0.399714 1.60265,1.036993 2.35661,1.416144 0.75396,0.379383 1.98244,0.874613 2.73002,1.100949 0.74759,0.226428 1.66499,0.459325 2.03869,0.517456 0.37384,0.05822 0.74467,0.187151 0.82433,0.286501 0.0795,0.09934 0.22828,0.578177 0.32994,1.063935 0.10165,0.485803 0.25832,1.157139 0.34796,1.491837 l 0.16266,0.608583 1.30695,-0.04667 1.30695,-0.04667 z"
       id="path5" /><text
       xml:space="preserve"
       style="font-style:normal;font-variant:normal;font-weight:bold;font-stretch:normal;font-size:11.3126px;line-height:0;font-family:orbitron;-inkscape-font-specification:'orbitron Bold';letter-spacing:0px;word-spacing:0px;fill:#ffffff;fill-opacity:1;stroke-width:1.28269;stroke-linecap:round"
       x="242.80206"
       y="75.144051"
       id="text5"><tspan
         id="tspan5"
         x="242.80206"
         y="75.144051"
         style="font-style:normal;font-variant:normal;font-weight:bold;font-stretch:normal;font-family:orbitron;-inkscape-font-specification:'orbitron Bold';letter-spacing:0px;fill:#ffffff;fill-opacity:1;stroke-width:1.28269">GUYZ MAKER</tspan></text><text
       xml:space="preserve"
       style="font-style:normal;font-variant:normal;font-weight:normal;font-stretch:normal;font-size:5.27349px;line-height:0;font-family:'Cascadia Mono';-inkscape-font-specification:'Cascadia Mono';letter-spacing:0.551897px;word-spacing:0px;opacity:1;fill:#ffffff;fill-opacity:1;stroke-width:0.597938;stroke-linecap:round"
       x="248.7639"
       y="83.079323"
       id="text6"><tspan
         id="tspan6"
         style="font-style:normal;font-variant:normal;font-weight:normal;font-stretch:normal;font-family:'Cascadia Mono';-inkscape-font-specification:'Cascadia Mono';letter-spacing:0.551897px;fill:#ffffff;fill-opacity:1;stroke-width:0.597938"
         x="248.7639"
         y="83.079323">CREATION &amp; INNOVATION</tspan></text></g></svg>
